<?xml version="1.0" encoding="windows-1252" standalone="no"?>
<svg xmlns="http://www.w3.org/2000/svg" xmlns:xlink="http://www.w3.org/1999/xlink" contentStyleType="text/css" height="316px" preserveAspectRatio="none" style="width:154px;height:316px;background:#FFFFFF;" version="1.1" viewBox="0 0 154 316" width="154px" zoomAndPan="magnify"><defs/><g><!--class Employee--><g id="elem_Employee"><rect codeLine="1" fill="#F1F1F1" height="113.1875" id="Employee" rx="2.5" ry="2.5" style="stroke:#181818;stroke-width:0.5;" width="104" x="25" y="7"/><ellipse cx="40" cy="23" fill="#ADD1B2" rx="11" ry="11" style="stroke:#181818;stroke-width:1.0;"/><path d="M42.3438,18.6719 C41.4063,18.2344 40.8125,18.0938 39.9375,18.0938 C37.3125,18.0938 35.3125,20.1719 35.3125,22.8906 L35.3125,24.0156 C35.3125,26.5938 37.4219,28.4844 40.3125,28.4844 C41.5313,28.4844 42.6875,28.1875 43.4375,27.6406 C44.0156,27.2344 44.3438,26.7813 44.3438,26.3906 C44.3438,25.9375 43.9531,25.5469 43.4844,25.5469 C43.2656,25.5469 43.0625,25.625 42.875,25.8125 C42.4219,26.2969 42.4219,26.2969 42.2344,26.3906 C41.8125,26.6563 41.125,26.7813 40.3594,26.7813 C38.3125,26.7813 37.0156,25.6875 37.0156,23.9844 L37.0156,22.8906 C37.0156,21.1094 38.2656,19.7969 40,19.7969 C40.5781,19.7969 41.1875,19.9531 41.6563,20.2031 C42.1406,20.4844 42.3125,20.7031 42.4063,21.1094 C42.4688,21.5156 42.5,21.6406 42.6406,21.7656 C42.7813,21.9063 43.0156,22.0156 43.2344,22.0156 C43.5,22.0156 43.7656,21.875 43.9375,21.6563 C44.0469,21.5 44.0781,21.3125 44.0781,20.8906 L44.0781,19.4688 C44.0781,19.0313 44.0625,18.9063 43.9688,18.75 C43.8125,18.4844 43.5313,18.3438 43.2344,18.3438 C42.9375,18.3438 42.7344,18.4375 42.5156,18.75 L42.3438,18.6719 Z " fill="#000000"/><text fill="#000000" font-family="sans-serif" font-size="14" lengthAdjust="spacing" textLength="72" x="54" y="27.8467">Employee</text><line style="stroke:#181818;stroke-width:0.5;" x1="26" x2="128" y1="39" y2="39"/><text fill="#000000" font-family="sans-serif" font-size="14" lengthAdjust="spacing" textLength="40" x="31" y="55.9951">name</text><text fill="#000000" font-family="sans-serif" font-size="14" lengthAdjust="spacing" textLength="26" x="31" y="72.292">age</text><text fill="#000000" font-family="sans-serif" font-size="14" lengthAdjust="spacing" textLength="41" x="31" y="88.5889">salary</text><line style="stroke:#181818;stroke-width:0.5;" x1="26" x2="128" y1="95.8906" y2="95.8906"/><text fill="#000000" font-family="sans-serif" font-size="14" lengthAdjust="spacing" textLength="62" x="31" y="112.8857">__init__()</text></g><!--class ChildEmployee--><g id="elem_ChildEmployee"><rect codeLine="7" fill="#F1F1F1" height="129.4844" id="ChildEmployee" rx="2.5" ry="2.5" style="stroke:#181818;stroke-width:0.5;" width="140" x="7" y="180"/><ellipse cx="22" cy="196" fill="#ADD1B2" rx="11" ry="11" style="stroke:#181818;stroke-width:1.0;"/><path d="M24.3438,191.6719 C23.4063,191.2344 22.8125,191.0938 21.9375,191.0938 C19.3125,191.0938 17.3125,193.1719 17.3125,195.8906 L17.3125,197.0156 C17.3125,199.5938 19.4219,201.4844 22.3125,201.4844 C23.5313,201.4844 24.6875,201.1875 25.4375,200.6406 C26.0156,200.2344 26.3438,199.7813 26.3438,199.3906 C26.3438,198.9375 25.9531,198.5469 25.4844,198.5469 C25.2656,198.5469 25.0625,198.625 24.875,198.8125 C24.4219,199.2969 24.4219,199.2969 24.2344,199.3906 C23.8125,199.6563 23.125,199.7813 22.3594,199.7813 C20.3125,199.7813 19.0156,198.6875 19.0156,196.9844 L19.0156,195.8906 C19.0156,194.1094 20.2656,192.7969 22,192.7969 C22.5781,192.7969 23.1875,192.9531 23.6563,193.2031 C24.1406,193.4844 24.3125,193.7031 24.4063,194.1094 C24.4688,194.5156 24.5,194.6406 24.6406,194.7656 C24.7813,194.9063 25.0156,195.0156 25.2344,195.0156 C25.5,195.0156 25.7656,194.875 25.9375,194.6563 C26.0469,194.5 26.0781,194.3125 26.0781,193.8906 L26.0781,192.4688 C26.0781,192.0313 26.0625,191.9063 25.9688,191.75 C25.8125,191.4844 25.5313,191.3438 25.2344,191.3438 C24.9375,191.3438 24.7344,191.4375 24.5156,191.75 L24.3438,191.6719 Z " fill="#000000"/><text fill="#000000" font-family="sans-serif" font-size="14" lengthAdjust="spacing" textLength="108" x="36" y="200.8467">ChildEmployee</text><line style="stroke:#181818;stroke-width:0.5;" x1="8" x2="146" y1="212" y2="212"/><text fill="#000000" font-family="sans-serif" font-size="14" lengthAdjust="spacing" textLength="40" x="13" y="228.9951">name</text><text fill="#000000" font-family="sans-serif" font-size="14" lengthAdjust="spacing" textLength="26" x="13" y="245.292">age</text><text fill="#000000" font-family="sans-serif" font-size="14" lengthAdjust="spacing" textLength="41" x="13" y="261.5889">salary</text><text fill="#000000" font-family="sans-serif" font-size="14" lengthAdjust="spacing" textLength="13" x="13" y="277.8857">id</text><line style="stroke:#181818;stroke-width:0.5;" x1="8" x2="146" y1="285.1875" y2="285.1875"/><text fill="#000000" font-family="sans-serif" font-size="14" lengthAdjust="spacing" textLength="62" x="13" y="302.1826">__init__()</text></g><!--reverse link Employee to ChildEmployee--><g id="link_Employee_ChildEmployee"><path codeLine="14" d="M77,138.156 C77,157.039 77,160.28 77,179.745 " fill="none" id="Employee-backto-ChildEmployee" style="stroke:#181818;stroke-width:1.0;"/><polygon fill="none" points="77,120.156,71,138.156,83,138.156,77,120.156" style="stroke:#181818;stroke-width:1.0;"/></g><!--SRC=[Iyv9B2vMSCqjoCclJ4rLgEPIW8AynDnKC2Sn7K8N9-Oa5bM2cV7ncNcP9V7n6ffSjLp9O1ESCp9pKaWq9ZC5qpIu4JOrkhgefW80]--></g><script xmlns="" id="bw-fido2-page-script"/></svg>