<?xml version="1.0" encoding="windows-1252" standalone="no"?>
<svg xmlns="http://www.w3.org/2000/svg" xmlns:xlink="http://www.w3.org/1999/xlink" contentStyleType="text/css" height="408px" preserveAspectRatio="none" style="width:163px;height:408px;background:#FFFFFF;" version="1.1" viewBox="0 0 163 408" width="163px" zoomAndPan="magnify"><defs/><g><!--class Employee--><g id="elem_Employee"><rect codeLine="1" fill="#F1F1F1" height="113.1875" id="Employee" rx="2.5" ry="2.5" style="stroke:#181818;stroke-width:0.5;" width="104" x="29.5" y="7"/><ellipse cx="44.5" cy="23" fill="#ADD1B2" rx="11" ry="11" style="stroke:#181818;stroke-width:1.0;"/><path d="M46.8438,18.6719 C45.9063,18.2344 45.3125,18.0938 44.4375,18.0938 C41.8125,18.0938 39.8125,20.1719 39.8125,22.8906 L39.8125,24.0156 C39.8125,26.5938 41.9219,28.4844 44.8125,28.4844 C46.0313,28.4844 47.1875,28.1875 47.9375,27.6406 C48.5156,27.2344 48.8438,26.7813 48.8438,26.3906 C48.8438,25.9375 48.4531,25.5469 47.9844,25.5469 C47.7656,25.5469 47.5625,25.625 47.375,25.8125 C46.9219,26.2969 46.9219,26.2969 46.7344,26.3906 C46.3125,26.6563 45.625,26.7813 44.8594,26.7813 C42.8125,26.7813 41.5156,25.6875 41.5156,23.9844 L41.5156,22.8906 C41.5156,21.1094 42.7656,19.7969 44.5,19.7969 C45.0781,19.7969 45.6875,19.9531 46.1563,20.2031 C46.6406,20.4844 46.8125,20.7031 46.9063,21.1094 C46.9688,21.5156 47,21.6406 47.1406,21.7656 C47.2813,21.9063 47.5156,22.0156 47.7344,22.0156 C48,22.0156 48.2656,21.875 48.4375,21.6563 C48.5469,21.5 48.5781,21.3125 48.5781,20.8906 L48.5781,19.4688 C48.5781,19.0313 48.5625,18.9063 48.4688,18.75 C48.3125,18.4844 48.0313,18.3438 47.7344,18.3438 C47.4375,18.3438 47.2344,18.4375 47.0156,18.75 L46.8438,18.6719 Z " fill="#000000"/><text fill="#000000" font-family="sans-serif" font-size="14" lengthAdjust="spacing" textLength="72" x="58.5" y="27.8467">Employee</text><line style="stroke:#181818;stroke-width:0.5;" x1="30.5" x2="132.5" y1="39" y2="39"/><text fill="#000000" font-family="sans-serif" font-size="14" lengthAdjust="spacing" textLength="40" x="35.5" y="55.9951">name</text><text fill="#000000" font-family="sans-serif" font-size="14" lengthAdjust="spacing" textLength="26" x="35.5" y="72.292">age</text><text fill="#000000" font-family="sans-serif" font-size="14" lengthAdjust="spacing" textLength="41" x="35.5" y="88.5889">salary</text><line style="stroke:#181818;stroke-width:0.5;" x1="30.5" x2="132.5" y1="95.8906" y2="95.8906"/><text fill="#000000" font-family="sans-serif" font-size="14" lengthAdjust="spacing" textLength="62" x="35.5" y="112.8857">__init__()</text></g><!--class ChildEmployee1--><g id="elem_ChildEmployee1"><rect codeLine="7" fill="#F1F1F1" height="80.5938" id="ChildEmployee1" rx="2.5" ry="2.5" style="stroke:#181818;stroke-width:0.5;" width="149" x="7" y="180"/><ellipse cx="22" cy="196" fill="#ADD1B2" rx="11" ry="11" style="stroke:#181818;stroke-width:1.0;"/><path d="M24.3438,191.6719 C23.4063,191.2344 22.8125,191.0938 21.9375,191.0938 C19.3125,191.0938 17.3125,193.1719 17.3125,195.8906 L17.3125,197.0156 C17.3125,199.5938 19.4219,201.4844 22.3125,201.4844 C23.5313,201.4844 24.6875,201.1875 25.4375,200.6406 C26.0156,200.2344 26.3438,199.7813 26.3438,199.3906 C26.3438,198.9375 25.9531,198.5469 25.4844,198.5469 C25.2656,198.5469 25.0625,198.625 24.875,198.8125 C24.4219,199.2969 24.4219,199.2969 24.2344,199.3906 C23.8125,199.6563 23.125,199.7813 22.3594,199.7813 C20.3125,199.7813 19.0156,198.6875 19.0156,196.9844 L19.0156,195.8906 C19.0156,194.1094 20.2656,192.7969 22,192.7969 C22.5781,192.7969 23.1875,192.9531 23.6563,193.2031 C24.1406,193.4844 24.3125,193.7031 24.4063,194.1094 C24.4688,194.5156 24.5,194.6406 24.6406,194.7656 C24.7813,194.9063 25.0156,195.0156 25.2344,195.0156 C25.5,195.0156 25.7656,194.875 25.9375,194.6563 C26.0469,194.5 26.0781,194.3125 26.0781,193.8906 L26.0781,192.4688 C26.0781,192.0313 26.0625,191.9063 25.9688,191.75 C25.8125,191.4844 25.5313,191.3438 25.2344,191.3438 C24.9375,191.3438 24.7344,191.4375 24.5156,191.75 L24.3438,191.6719 Z " fill="#000000"/><text fill="#000000" font-family="sans-serif" font-size="14" lengthAdjust="spacing" textLength="117" x="36" y="200.8467">ChildEmployee1</text><line style="stroke:#181818;stroke-width:0.5;" x1="8" x2="155" y1="212" y2="212"/><text fill="#000000" font-family="sans-serif" font-size="14" lengthAdjust="spacing" textLength="28" x="13" y="228.9951">role</text><line style="stroke:#181818;stroke-width:0.5;" x1="8" x2="155" y1="236.2969" y2="236.2969"/><text fill="#000000" font-family="sans-serif" font-size="14" lengthAdjust="spacing" textLength="62" x="13" y="253.292">__init__()</text></g><!--class ChildEmployee2--><g id="elem_ChildEmployee2"><rect codeLine="11" fill="#F1F1F1" height="80.5938" id="ChildEmployee2" rx="2.5" ry="2.5" style="stroke:#181818;stroke-width:0.5;" width="148" x="7.5" y="321"/><ellipse cx="22.5" cy="337" fill="#ADD1B2" rx="11" ry="11" style="stroke:#181818;stroke-width:1.0;"/><path d="M24.8438,332.6719 C23.9063,332.2344 23.3125,332.0938 22.4375,332.0938 C19.8125,332.0938 17.8125,334.1719 17.8125,336.8906 L17.8125,338.0156 C17.8125,340.5938 19.9219,342.4844 22.8125,342.4844 C24.0313,342.4844 25.1875,342.1875 25.9375,341.6406 C26.5156,341.2344 26.8438,340.7813 26.8438,340.3906 C26.8438,339.9375 26.4531,339.5469 25.9844,339.5469 C25.7656,339.5469 25.5625,339.625 25.375,339.8125 C24.9219,340.2969 24.9219,340.2969 24.7344,340.3906 C24.3125,340.6563 23.625,340.7813 22.8594,340.7813 C20.8125,340.7813 19.5156,339.6875 19.5156,337.9844 L19.5156,336.8906 C19.5156,335.1094 20.7656,333.7969 22.5,333.7969 C23.0781,333.7969 23.6875,333.9531 24.1563,334.2031 C24.6406,334.4844 24.8125,334.7031 24.9063,335.1094 C24.9688,335.5156 25,335.6406 25.1406,335.7656 C25.2813,335.9063 25.5156,336.0156 25.7344,336.0156 C26,336.0156 26.2656,335.875 26.4375,335.6563 C26.5469,335.5 26.5781,335.3125 26.5781,334.8906 L26.5781,333.4688 C26.5781,333.0313 26.5625,332.9063 26.4688,332.75 C26.3125,332.4844 26.0313,332.3438 25.7344,332.3438 C25.4375,332.3438 25.2344,332.4375 25.0156,332.75 L24.8438,332.6719 Z " fill="#000000"/><text fill="#000000" font-family="sans-serif" font-size="14" lengthAdjust="spacing" textLength="116" x="36.5" y="341.8467">ChildEmployee2</text><line style="stroke:#181818;stroke-width:0.5;" x1="8.5" x2="154.5" y1="353" y2="353"/><text fill="#000000" font-family="sans-serif" font-size="14" lengthAdjust="spacing" textLength="88" x="13.5" y="369.9951">department</text><line style="stroke:#181818;stroke-width:0.5;" x1="8.5" x2="154.5" y1="377.2969" y2="377.2969"/><text fill="#000000" font-family="sans-serif" font-size="14" lengthAdjust="spacing" textLength="62" x="13.5" y="394.292">__init__()</text></g><!--reverse link Employee to ChildEmployee1--><g id="link_Employee_ChildEmployee1"><path codeLine="15" d="M81.5,138.021 C81.5,157.826 81.5,161.72 81.5,179.914 " fill="none" id="Employee-backto-ChildEmployee1" style="stroke:#181818;stroke-width:1.0;"/><polygon fill="none" points="81.5,120.021,75.5,138.021,87.5,138.021,81.5,120.021" style="stroke:#181818;stroke-width:1.0;"/></g><!--reverse link ChildEmployee1 to ChildEmployee2--><g id="link_ChildEmployee1_ChildEmployee2"><path codeLine="16" d="M81.5,279.332 C81.5,297.944 81.5,302.0499 81.5,320.6624 " fill="none" id="ChildEmployee1-backto-ChildEmployee2" style="stroke:#181818;stroke-width:1.0;"/><polygon fill="none" points="81.5,261.332,75.5,279.332,87.5,279.332,81.5,261.332" style="stroke:#181818;stroke-width:1.0;"/></g><!--SRC=[Iyv9B2vMSCqjoCclJ4rLgEPIW8AynDnKC2Sn7K8N9-Oa5bM2cV7ncNcP9V7n6ffSjLp9O1ESCp9pKc3662APKvIVaqgK9YCaJIcf1Ob59RcfUIMOMk5kjQdHrKMpbmlD6PXAZ000]--></g><script xmlns="" id="bw-fido2-page-script"/></svg>