<?xml version="1.0" encoding="windows-1252" standalone="no"?>
<svg xmlns="http://www.w3.org/2000/svg" xmlns:xlink="http://www.w3.org/1999/xlink" contentStyleType="text/css" height="299px" preserveAspectRatio="none" style="width:346px;height:299px;background:#FFFFFF;" version="1.1" viewBox="0 0 346 299" width="346px" zoomAndPan="magnify"><defs/><g><!--class Employee--><g id="elem_Employee"><rect codeLine="1" fill="#F1F1F1" height="129.4844" id="Employee" rx="2.5" ry="2.5" style="stroke:#181818;stroke-width:0.5;" width="104" x="121.5" y="7"/><ellipse cx="136.5" cy="23" fill="#ADD1B2" rx="11" ry="11" style="stroke:#181818;stroke-width:1.0;"/><path d="M138.8438,18.6719 C137.9063,18.2344 137.3125,18.0938 136.4375,18.0938 C133.8125,18.0938 131.8125,20.1719 131.8125,22.8906 L131.8125,24.0156 C131.8125,26.5938 133.9219,28.4844 136.8125,28.4844 C138.0313,28.4844 139.1875,28.1875 139.9375,27.6406 C140.5156,27.2344 140.8438,26.7813 140.8438,26.3906 C140.8438,25.9375 140.4531,25.5469 139.9844,25.5469 C139.7656,25.5469 139.5625,25.625 139.375,25.8125 C138.9219,26.2969 138.9219,26.2969 138.7344,26.3906 C138.3125,26.6563 137.625,26.7813 136.8594,26.7813 C134.8125,26.7813 133.5156,25.6875 133.5156,23.9844 L133.5156,22.8906 C133.5156,21.1094 134.7656,19.7969 136.5,19.7969 C137.0781,19.7969 137.6875,19.9531 138.1563,20.2031 C138.6406,20.4844 138.8125,20.7031 138.9063,21.1094 C138.9688,21.5156 139,21.6406 139.1406,21.7656 C139.2813,21.9063 139.5156,22.0156 139.7344,22.0156 C140,22.0156 140.2656,21.875 140.4375,21.6563 C140.5469,21.5 140.5781,21.3125 140.5781,20.8906 L140.5781,19.4688 C140.5781,19.0313 140.5625,18.9063 140.4688,18.75 C140.3125,18.4844 140.0313,18.3438 139.7344,18.3438 C139.4375,18.3438 139.2344,18.4375 139.0156,18.75 L138.8438,18.6719 Z " fill="#000000"/><text fill="#000000" font-family="sans-serif" font-size="14" lengthAdjust="spacing" textLength="72" x="150.5" y="27.8467">Employee</text><line style="stroke:#181818;stroke-width:0.5;" x1="122.5" x2="224.5" y1="39" y2="39"/><text fill="#000000" font-family="sans-serif" font-size="14" lengthAdjust="spacing" textLength="40" x="127.5" y="55.9951">name</text><text fill="#000000" font-family="sans-serif" font-size="14" lengthAdjust="spacing" textLength="26" x="127.5" y="72.292">age</text><text fill="#000000" font-family="sans-serif" font-size="14" lengthAdjust="spacing" textLength="41" x="127.5" y="88.5889">salary</text><line style="stroke:#181818;stroke-width:0.5;" x1="122.5" x2="224.5" y1="95.8906" y2="95.8906"/><text fill="#000000" font-family="sans-serif" font-size="14" lengthAdjust="spacing" textLength="58" x="127.5" y="112.8857">__str__()</text><text fill="#000000" font-family="sans-serif" font-size="14" lengthAdjust="spacing" textLength="62" x="127.5" y="129.1826">__init__()</text></g><!--class ChildEmployee1--><g id="elem_ChildEmployee1"><rect codeLine="8" fill="#F1F1F1" height="96.8906" id="ChildEmployee1" rx="2.5" ry="2.5" style="stroke:#181818;stroke-width:0.5;" width="149" x="7" y="196"/><ellipse cx="22" cy="212" fill="#ADD1B2" rx="11" ry="11" style="stroke:#181818;stroke-width:1.0;"/><path d="M24.3438,207.6719 C23.4063,207.2344 22.8125,207.0938 21.9375,207.0938 C19.3125,207.0938 17.3125,209.1719 17.3125,211.8906 L17.3125,213.0156 C17.3125,215.5938 19.4219,217.4844 22.3125,217.4844 C23.5313,217.4844 24.6875,217.1875 25.4375,216.6406 C26.0156,216.2344 26.3438,215.7813 26.3438,215.3906 C26.3438,214.9375 25.9531,214.5469 25.4844,214.5469 C25.2656,214.5469 25.0625,214.625 24.875,214.8125 C24.4219,215.2969 24.4219,215.2969 24.2344,215.3906 C23.8125,215.6563 23.125,215.7813 22.3594,215.7813 C20.3125,215.7813 19.0156,214.6875 19.0156,212.9844 L19.0156,211.8906 C19.0156,210.1094 20.2656,208.7969 22,208.7969 C22.5781,208.7969 23.1875,208.9531 23.6563,209.2031 C24.1406,209.4844 24.3125,209.7031 24.4063,210.1094 C24.4688,210.5156 24.5,210.6406 24.6406,210.7656 C24.7813,210.9063 25.0156,211.0156 25.2344,211.0156 C25.5,211.0156 25.7656,210.875 25.9375,210.6563 C26.0469,210.5 26.0781,210.3125 26.0781,209.8906 L26.0781,208.4688 C26.0781,208.0313 26.0625,207.9063 25.9688,207.75 C25.8125,207.4844 25.5313,207.3438 25.2344,207.3438 C24.9375,207.3438 24.7344,207.4375 24.5156,207.75 L24.3438,207.6719 Z " fill="#000000"/><text fill="#000000" font-family="sans-serif" font-size="14" lengthAdjust="spacing" textLength="117" x="36" y="216.8467">ChildEmployee1</text><line style="stroke:#181818;stroke-width:0.5;" x1="8" x2="155" y1="228" y2="228"/><text fill="#000000" font-family="sans-serif" font-size="14" lengthAdjust="spacing" textLength="28" x="13" y="244.9951">role</text><line style="stroke:#181818;stroke-width:0.5;" x1="8" x2="155" y1="252.2969" y2="252.2969"/><text fill="#000000" font-family="sans-serif" font-size="14" lengthAdjust="spacing" textLength="58" x="13" y="269.292">__str__()</text><text fill="#000000" font-family="sans-serif" font-size="14" lengthAdjust="spacing" textLength="62" x="13" y="285.5889">__init__()</text></g><!--class ChildEmployee2--><g id="elem_ChildEmployee2"><rect codeLine="13" fill="#F1F1F1" height="96.8906" id="ChildEmployee2" rx="2.5" ry="2.5" style="stroke:#181818;stroke-width:0.5;" width="148" x="191.5" y="196"/><ellipse cx="206.5" cy="212" fill="#ADD1B2" rx="11" ry="11" style="stroke:#181818;stroke-width:1.0;"/><path d="M208.8438,207.6719 C207.9063,207.2344 207.3125,207.0938 206.4375,207.0938 C203.8125,207.0938 201.8125,209.1719 201.8125,211.8906 L201.8125,213.0156 C201.8125,215.5938 203.9219,217.4844 206.8125,217.4844 C208.0313,217.4844 209.1875,217.1875 209.9375,216.6406 C210.5156,216.2344 210.8438,215.7813 210.8438,215.3906 C210.8438,214.9375 210.4531,214.5469 209.9844,214.5469 C209.7656,214.5469 209.5625,214.625 209.375,214.8125 C208.9219,215.2969 208.9219,215.2969 208.7344,215.3906 C208.3125,215.6563 207.625,215.7813 206.8594,215.7813 C204.8125,215.7813 203.5156,214.6875 203.5156,212.9844 L203.5156,211.8906 C203.5156,210.1094 204.7656,208.7969 206.5,208.7969 C207.0781,208.7969 207.6875,208.9531 208.1563,209.2031 C208.6406,209.4844 208.8125,209.7031 208.9063,210.1094 C208.9688,210.5156 209,210.6406 209.1406,210.7656 C209.2813,210.9063 209.5156,211.0156 209.7344,211.0156 C210,211.0156 210.2656,210.875 210.4375,210.6563 C210.5469,210.5 210.5781,210.3125 210.5781,209.8906 L210.5781,208.4688 C210.5781,208.0313 210.5625,207.9063 210.4688,207.75 C210.3125,207.4844 210.0313,207.3438 209.7344,207.3438 C209.4375,207.3438 209.2344,207.4375 209.0156,207.75 L208.8438,207.6719 Z " fill="#000000"/><text fill="#000000" font-family="sans-serif" font-size="14" lengthAdjust="spacing" textLength="116" x="220.5" y="216.8467">ChildEmployee2</text><line style="stroke:#181818;stroke-width:0.5;" x1="192.5" x2="338.5" y1="228" y2="228"/><text fill="#000000" font-family="sans-serif" font-size="14" lengthAdjust="spacing" textLength="88" x="197.5" y="244.9951">department</text><line style="stroke:#181818;stroke-width:0.5;" x1="192.5" x2="338.5" y1="252.2969" y2="252.2969"/><text fill="#000000" font-family="sans-serif" font-size="14" lengthAdjust="spacing" textLength="58" x="197.5" y="269.292">__str__()</text><text fill="#000000" font-family="sans-serif" font-size="14" lengthAdjust="spacing" textLength="62" x="197.5" y="285.5889">__init__()</text></g><!--reverse link Employee to ChildEmployee1--><g id="link_Employee_ChildEmployee1"><path codeLine="18" d="M130.7143,152.0252 C120.0873,171.7762 117.094,177.341 107.158,195.8101 " fill="none" id="Employee-backto-ChildEmployee1" style="stroke:#181818;stroke-width:1.0;"/><polygon fill="none" points="139.243,136.174,125.4305,149.1823,135.998,154.8681,139.243,136.174" style="stroke:#181818;stroke-width:1.0;"/></g><!--reverse link Employee to ChildEmployee2--><g id="link_Employee_ChildEmployee2"><path codeLine="19" d="M216.2857,152.0252 C226.9127,171.7762 229.906,177.341 239.842,195.8101 " fill="none" id="Employee-backto-ChildEmployee2" style="stroke:#181818;stroke-width:1.0;"/><polygon fill="none" points="207.757,136.174,211.002,154.8681,221.5695,149.1823,207.757,136.174" style="stroke:#181818;stroke-width:1.0;"/></g><!--SRC=[Iyv9B2vMSCqjoCclJ4rLgEPI08Bu-EAIelXu3Kqm3mJo4dDJmPp4T0XTd9YJM5G9LPsPbra2LbxBbGmsppaZCoS5PgWXJbEBydDIYJB22ASHAQa5YKKbkQbv9PW6mNrbKwEhY-OcV9960000]--></g><script xmlns="" id="bw-fido2-page-script"/></svg>