<?xml version="1.0" encoding="windows-1252" standalone="no"?>
<svg xmlns="http://www.w3.org/2000/svg" xmlns:xlink="http://www.w3.org/1999/xlink" contentStyleType="text/css" height="316px" preserveAspectRatio="none" style="width:353px;height:316px;background:#FFFFFF;" version="1.1" viewBox="0 0 353 316" width="353px" zoomAndPan="magnify"><defs/><g><!--class Employee1--><g id="elem_Employee1"><rect codeLine="1" fill="#F1F1F1" height="113.1875" id="Employee1" rx="2.5" ry="2.5" style="stroke:#181818;stroke-width:0.5;" width="137" x="7" y="15"/><ellipse cx="32.8" cy="31" fill="#ADD1B2" rx="11" ry="11" style="stroke:#181818;stroke-width:1.0;"/><path d="M35.1438,26.6719 C34.2063,26.2344 33.6125,26.0938 32.7375,26.0938 C30.1125,26.0938 28.1125,28.1719 28.1125,30.8906 L28.1125,32.0156 C28.1125,34.5938 30.2219,36.4844 33.1125,36.4844 C34.3313,36.4844 35.4875,36.1875 36.2375,35.6406 C36.8156,35.2344 37.1438,34.7813 37.1438,34.3906 C37.1438,33.9375 36.7531,33.5469 36.2844,33.5469 C36.0656,33.5469 35.8625,33.625 35.675,33.8125 C35.2219,34.2969 35.2219,34.2969 35.0344,34.3906 C34.6125,34.6563 33.925,34.7813 33.1594,34.7813 C31.1125,34.7813 29.8156,33.6875 29.8156,31.9844 L29.8156,30.8906 C29.8156,29.1094 31.0656,27.7969 32.8,27.7969 C33.3781,27.7969 33.9875,27.9531 34.4563,28.2031 C34.9406,28.4844 35.1125,28.7031 35.2063,29.1094 C35.2688,29.5156 35.3,29.6406 35.4406,29.7656 C35.5813,29.9063 35.8156,30.0156 36.0344,30.0156 C36.3,30.0156 36.5656,29.875 36.7375,29.6563 C36.8469,29.5 36.8781,29.3125 36.8781,28.8906 L36.8781,27.4688 C36.8781,27.0313 36.8625,26.9063 36.7688,26.75 C36.6125,26.4844 36.3313,26.3438 36.0344,26.3438 C35.7375,26.3438 35.5344,26.4375 35.3156,26.75 L35.1438,26.6719 Z " fill="#000000"/><text fill="#000000" font-family="sans-serif" font-size="14" lengthAdjust="spacing" textLength="81" x="49.2" y="35.8467">Employee1</text><line style="stroke:#181818;stroke-width:0.5;" x1="8" x2="143" y1="47" y2="47"/><rect fill="none" height="6" style="stroke:#C82930;stroke-width:1.0;" width="6" x="15" y="57.6484"/><text fill="#000000" font-family="sans-serif" font-size="14" lengthAdjust="spacing" textLength="93" x="27" y="63.9951">name: String</text><rect fill="none" height="6" style="stroke:#C82930;stroke-width:1.0;" width="6" x="15" y="73.9453"/><text fill="#000000" font-family="sans-serif" font-size="14" lengthAdjust="spacing" textLength="55" x="27" y="80.292">age: int</text><rect fill="none" height="6" style="stroke:#C82930;stroke-width:1.0;" width="6" x="15" y="90.2422"/><text fill="#000000" font-family="sans-serif" font-size="14" lengthAdjust="spacing" textLength="84" x="27" y="96.5889">salary: float</text><line style="stroke:#181818;stroke-width:0.5;" x1="8" x2="143" y1="103.8906" y2="103.8906"/><ellipse cx="18" cy="117.5391" fill="#84BE84" rx="3" ry="3" style="stroke:#038048;stroke-width:1.0;"/><text fill="#000000" font-family="sans-serif" font-size="14" lengthAdjust="spacing" textLength="111" x="27" y="120.8857">__str__(): String</text></g><!--class Employee2--><g id="elem_Employee2"><rect codeLine="8" fill="#F1F1F1" height="129.4844" id="Employee2" rx="2.5" ry="2.5" style="stroke:#181818;stroke-width:0.5;" width="167" x="179" y="7"/><ellipse cx="218.75" cy="23" fill="#ADD1B2" rx="11" ry="11" style="stroke:#181818;stroke-width:1.0;"/><path d="M221.0938,18.6719 C220.1563,18.2344 219.5625,18.0938 218.6875,18.0938 C216.0625,18.0938 214.0625,20.1719 214.0625,22.8906 L214.0625,24.0156 C214.0625,26.5938 216.1719,28.4844 219.0625,28.4844 C220.2813,28.4844 221.4375,28.1875 222.1875,27.6406 C222.7656,27.2344 223.0938,26.7813 223.0938,26.3906 C223.0938,25.9375 222.7031,25.5469 222.2344,25.5469 C222.0156,25.5469 221.8125,25.625 221.625,25.8125 C221.1719,26.2969 221.1719,26.2969 220.9844,26.3906 C220.5625,26.6563 219.875,26.7813 219.1094,26.7813 C217.0625,26.7813 215.7656,25.6875 215.7656,23.9844 L215.7656,22.8906 C215.7656,21.1094 217.0156,19.7969 218.75,19.7969 C219.3281,19.7969 219.9375,19.9531 220.4063,20.2031 C220.8906,20.4844 221.0625,20.7031 221.1563,21.1094 C221.2188,21.5156 221.25,21.6406 221.3906,21.7656 C221.5313,21.9063 221.7656,22.0156 221.9844,22.0156 C222.25,22.0156 222.5156,21.875 222.6875,21.6563 C222.7969,21.5 222.8281,21.3125 222.8281,20.8906 L222.8281,19.4688 C222.8281,19.0313 222.8125,18.9063 222.7188,18.75 C222.5625,18.4844 222.2813,18.3438 221.9844,18.3438 C221.6875,18.3438 221.4844,18.4375 221.2656,18.75 L221.0938,18.6719 Z " fill="#000000"/><text fill="#000000" font-family="sans-serif" font-size="14" lengthAdjust="spacing" textLength="80" x="238.25" y="27.8467">Employee2</text><line style="stroke:#181818;stroke-width:0.5;" x1="180" x2="345" y1="39" y2="39"/><rect fill="none" height="6" style="stroke:#C82930;stroke-width:1.0;" width="6" x="187" y="49.6484"/><text fill="#000000" font-family="sans-serif" font-size="14" lengthAdjust="spacing" textLength="93" x="199" y="55.9951">name: String</text><rect fill="none" height="6" style="stroke:#C82930;stroke-width:1.0;" width="6" x="187" y="65.9453"/><text fill="#000000" font-family="sans-serif" font-size="14" lengthAdjust="spacing" textLength="55" x="199" y="72.292">age: int</text><rect fill="none" height="6" style="stroke:#C82930;stroke-width:1.0;" width="6" x="187" y="82.2422"/><text fill="#000000" font-family="sans-serif" font-size="14" lengthAdjust="spacing" textLength="84" x="199" y="88.5889">salary: float</text><rect fill="none" height="6" style="stroke:#C82930;stroke-width:1.0;" width="6" x="187" y="98.5391"/><text fill="#000000" font-family="sans-serif" font-size="14" lengthAdjust="spacing" textLength="141" x="199" y="104.8857">department: String</text><line style="stroke:#181818;stroke-width:0.5;" x1="180" x2="345" y1="112.1875" y2="112.1875"/><ellipse cx="190" cy="125.8359" fill="#84BE84" rx="3" ry="3" style="stroke:#038048;stroke-width:1.0;"/><text fill="#000000" font-family="sans-serif" font-size="14" lengthAdjust="spacing" textLength="111" x="199" y="129.1826">__str__(): String</text></g><!--class ChildEmployee--><g id="elem_ChildEmployee"><rect codeLine="16" fill="#F1F1F1" height="96.8906" id="ChildEmployee" rx="2.5" ry="2.5" style="stroke:#181818;stroke-width:0.5;" width="167" x="85" y="213"/><ellipse cx="112.15" cy="229" fill="#ADD1B2" rx="11" ry="11" style="stroke:#181818;stroke-width:1.0;"/><path d="M114.4938,224.6719 C113.5563,224.2344 112.9625,224.0938 112.0875,224.0938 C109.4625,224.0938 107.4625,226.1719 107.4625,228.8906 L107.4625,230.0156 C107.4625,232.5938 109.5719,234.4844 112.4625,234.4844 C113.6813,234.4844 114.8375,234.1875 115.5875,233.6406 C116.1656,233.2344 116.4938,232.7813 116.4938,232.3906 C116.4938,231.9375 116.1031,231.5469 115.6344,231.5469 C115.4156,231.5469 115.2125,231.625 115.025,231.8125 C114.5719,232.2969 114.5719,232.2969 114.3844,232.3906 C113.9625,232.6563 113.275,232.7813 112.5094,232.7813 C110.4625,232.7813 109.1656,231.6875 109.1656,229.9844 L109.1656,228.8906 C109.1656,227.1094 110.4156,225.7969 112.15,225.7969 C112.7281,225.7969 113.3375,225.9531 113.8063,226.2031 C114.2906,226.4844 114.4625,226.7031 114.5563,227.1094 C114.6188,227.5156 114.65,227.6406 114.7906,227.7656 C114.9313,227.9063 115.1656,228.0156 115.3844,228.0156 C115.65,228.0156 115.9156,227.875 116.0875,227.6563 C116.1969,227.5 116.2281,227.3125 116.2281,226.8906 L116.2281,225.4688 C116.2281,225.0313 116.2125,224.9063 116.1188,224.75 C115.9625,224.4844 115.6813,224.3438 115.3844,224.3438 C115.0875,224.3438 114.8844,224.4375 114.6656,224.75 L114.4938,224.6719 Z " fill="#000000"/><text fill="#000000" font-family="sans-serif" font-size="14" lengthAdjust="spacing" textLength="108" x="128.85" y="233.8467">ChildEmployee</text><line style="stroke:#181818;stroke-width:0.5;" x1="86" x2="251" y1="245" y2="245"/><rect fill="none" height="6" style="stroke:#C82930;stroke-width:1.0;" width="6" x="93" y="255.6484"/><text fill="#000000" font-family="sans-serif" font-size="14" lengthAdjust="spacing" textLength="81" x="105" y="261.9951">role: String</text><rect fill="none" height="6" style="stroke:#C82930;stroke-width:1.0;" width="6" x="93" y="271.9453"/><text fill="#000000" font-family="sans-serif" font-size="14" lengthAdjust="spacing" textLength="141" x="105" y="278.292">department: String</text><line style="stroke:#181818;stroke-width:0.5;" x1="86" x2="251" y1="285.5938" y2="285.5938"/><ellipse cx="96" cy="299.2422" fill="#84BE84" rx="3" ry="3" style="stroke:#038048;stroke-width:1.0;"/><text fill="#000000" font-family="sans-serif" font-size="14" lengthAdjust="spacing" textLength="111" x="105" y="302.5889">__str__(): String</text></g><!--reverse link Employee1 to ChildEmployee--><g id="link_Employee1_ChildEmployee"><path codeLine="22" d="M111.0064,144.277 C124.3428,171.238 132.213,187.145 144.977,212.9491 " fill="none" id="Employee1-backto-ChildEmployee" style="stroke:#181818;stroke-width:1.0;"/><polygon fill="none" points="103.0256,128.143,105.6284,146.9373,116.3844,141.6168,103.0256,128.143" style="stroke:#181818;stroke-width:1.0;"/><text fill="#000000" font-family="sans-serif" font-size="13" lengthAdjust="spacing" textLength="47" x="129.5" y="179.0669">inherits</text></g><!--reverse link Employee2 to ChildEmployee--><g id="link_Employee2_ChildEmployee"><path codeLine="23" d="M222.6262,152.2477 C210.0562,177.3877 203.914,189.672 192.266,212.9686 " fill="none" id="Employee2-backto-ChildEmployee" style="stroke:#181818;stroke-width:1.0;"/><polygon fill="none" points="230.676,136.148,217.2596,149.5644,227.9927,154.931,230.676,136.148" style="stroke:#181818;stroke-width:1.0;"/><text fill="#000000" font-family="sans-serif" font-size="13" lengthAdjust="spacing" textLength="47" x="216.5" y="179.0669">inherits</text></g><!--SRC=[Iyv9B2vMSCqjoCclJ4qrLAZcKW02NOMynDnKAuNWagBCl7IeK68wK2GphmJABKxCIIogj598oybFX8XfAyJ75vSKnSThQCArrd9n9QDOOKIH5ReAAQa5YKKbkQbv9IXwyThjd96Pam9p0Dp-elmSTFj9CnmHQZOrkhfeje3yaP5Qb5bIp8NmEbvr0000]--></g><script xmlns="" id="bw-fido2-page-script"/></svg>